<?xml version="1.0" encoding="UTF-8" standalone="no"?>
<svg
   id="SDSC_Logo"
   viewBox="0 0 535.80316 511.67728"
   version="1.1"
   width="535.80316"
   height="511.67728"
   xmlns="http://www.w3.org/2000/svg"
   xmlns:svg="http://www.w3.org/2000/svg">
  <defs
     id="defs1">
    <style
       id="style1">.cls-1{fill:#90ca42;}.cls-2{fill:#5561a6;}.cls-3{fill:#26235c;}</style>
  </defs>
  <g
     id="SDSC_Logo_RGB"
     transform="translate(-0.00124901,-0.00272332)">
    <g
       id="Triangle">
      <path
         class="cls-3"
         d="m 442.43,489.79 c -25.19,13.85 -54.44,21.89 -86.49,21.89 H 185.21 C 91.68,511.68 33.22,410.43 79.98,329.44 l 0.76,-1.31 81.33,-140.86 c 23.64,-40.55 82.33,-40.46 105.83,0.24 l -81.18,140.62 c -23.55,40.79 5.88,91.78 52.98,91.78 h 163.89 c 93.37,0 151.8,-100.94 105.44,-181.86 l 2.44,4.24 c 53.11,91.98 14.43,201.63 -69.04,247.51 z"
         id="path5" />
      <path
         class="cls-2"
         d="M 349.09,328.13 267.9,187.51 C 244.4,146.8 185.72,146.72 162.07,187.27 l -81.33,140.86 -0.76,1.31 c -46.76,80.99 11.7,182.24 105.23,182.24 h -5.34 C 73.66,511.68 -1.96,423.36 0.04,328.13 0.63,299.55 8.23,270.35 24.07,242.72 L 109.7,94.41 c 46.76,-80.99 163.67,-80.99 210.43,0 l 0.76,1.32 81.18,140.62 c 23.55,40.78 -5.88,91.78 -52.98,91.78 z"
         id="path6" />
      <path
         class="cls-1"
         d="M 509.03,238.04 508.81,237.66 422.82,88.74 C 406.87,61.5 385.51,40.53 361.24,25.85 279.76,-23.5 165.46,-2.18 112.36,89.79 l -2.66,4.62 c 46.76,-80.99 163.67,-80.99 210.43,0 l 0.76,1.32 81.18,140.62 c 23.55,40.78 -5.88,91.78 -52.98,91.78 H 186.72 c -23.55,40.79 5.88,91.78 52.98,91.78 h 163.89 c 93.37,0 151.8,-100.94 105.44,-181.86 z"
         id="path7" />
    </g>
  </g>
</svg>
